<svg xmlns="http://www.w3.org/2000/svg"><symbol id="facebook" viewBox="0 0 27.2 27.4"><path d="M20.7 1.6H6.4a5.1 5.1 0 0 0-5.1 5.2v14.3a5.1 5.1 0 0 0 5.1 5.1h14.3a5.1 5.1 0 0 0 5.2-5.1V6.8a5.2 5.2 0 0 0-5.2-5.2zm-3 7.2h-2c-.6 0-1.1.2-1.1.9v1.2h3.1l-.2 3h-2.9v8.2h-3.1v-8.2h-2v-3h2v-2c0-2.1 1.1-3.2 3.6-3.2h2.6z"/></symbol><symbol id="instagram" viewBox="0 0 27.2 27.4"><path d="M13.6 3.8h5c3.3.2 4.8 1.7 5.1 5v9.9c-.3 3.4-1.8 4.9-5.1 5.2H8.7c-3.4-.3-4.9-1.8-5.1-5.2V8.8c.2-3.3 1.7-4.8 5.1-5zm0-2.3h-5c-4.5.2-7 2.7-7.2 7.1-.1 1.3-.1 1.7-.1 5.1s0 3.8.1 5c.2 4.5 2.7 7 7.2 7.2h10.1c4.4-.2 6.9-2.7 7.1-7.2.1-1.2.1-1.6.1-5s0-3.8-.1-5.1c-.2-4.4-2.7-6.9-7.1-7.1zm0 6a6.3 6.3 0 0 0-6.3 6.3 6.4 6.4 0 0 0 6.3 6.4 6.4 6.4 0 0 0 6.4-6.4 6.4 6.4 0 0 0-6.4-6.3zm0 10.4a4.1 4.1 0 1 1 4.1-4.1 4.1 4.1 0 0 1-4.1 4.1zm6.6-12.2a1.6 1.6 0 0 0-1.5 1.5 1.5 1.5 0 0 0 1.5 1.5 1.5 1.5 0 0 0 1.5-1.5 1.5 1.5 0 0 0-1.5-1.5z"/></symbol><symbol id="twitter" viewBox="0 0 27.2 27.4"><path d="M20.8 1.4H6.4a5.1 5.1 0 0 0-5.1 5.1v14.4A5.1 5.1 0 0 0 6.4 26h14.4a5.1 5.1 0 0 0 5.1-5.1V6.5a5.1 5.1 0 0 0-5.1-5.1zm-.1 9.4a9.8 9.8 0 0 1-9.2 10.1H11a8.6 8.6 0 0 1-5.1-1.6 7.3 7.3 0 0 0 5-1.3 3.3 3.3 0 0 1-3.1-2.4 2 2 0 0 0 1.5-.1 3.3 3.3 0 0 1-2.8-3.2l1.6.4a3.4 3.4 0 0 1-1-4.5 9.7 9.7 0 0 0 6.9 3.5 3.5 3.5 0 0 1 2.6-4.1h.7a3.5 3.5 0 0 1 2.5 1 7.6 7.6 0 0 0 2.1-.8 4.5 4.5 0 0 1-1.5 1.9 6 6 0 0 0 1.9-.6 4.4 4.4 0 0 1-1.6 1.7z"/></symbol><symbol id="shopping-cart" viewBox="0 0 24 24"><path d="M10 19.5a1.5 1.5 0 1 1-3 0 1.5 1.5 0 0 1 3 0zm3.5-1.5a1.5 1.5 0 1 0 0 3 1.5 1.5 0 0 0 0-3zm1.336-5l1.977-7H0l2.938 7h11.898zm4.969-10l-3.432 12H3.776l.839 2h13.239l3.474-12h1.929L24 3h-4.195z"/></symbol></svg>