<svg xmlns="http://www.w3.org/2000/svg"><symbol id="cart" viewBox="0 0 34.9 34.9"><path d="M0 0h34.9v34.9H0z"/><path fill="#fff" d="M15.5 25.6a1.5 1.5 0 0 1-1.5 1.5 1.5 1.5 0 0 1 0-3 1.5 1.5 0 0 1 1.5 1.5zm3.5-1.5a1.5 1.5 0 0 0 0 3 1.5 1.5 0 0 0 0-3zm1.3-5l2-7H5.5l2.9 7zm5-10l-3.5 12H9.2l.9 2h13.2l3.5-12h1.9l.8-2z"/></symbol><symbol id="social" viewBox="0 0 84.3 30.2"><path d="M0 0h84.3v30.19H0z"/><path fill="#fff" d="M22 3.1H8a5 5 0 0 0-5 5v14a5 5 0 0 0 5 5h14a5 5 0 0 0 5-5v-14a5 5 0 0 0-5-5zm-.1 9.2a9.4 9.4 0 0 1-9.4 9.8 8.9 8.9 0 0 1-5-1.5 7.2 7.2 0 0 0 4.9-1.3A3.4 3.4 0 0 1 9.3 17a2.6 2.6 0 0 0 1.5-.1 3.3 3.3 0 0 1-2.7-3.2 4.2 4.2 0 0 0 1.5.4 3.4 3.4 0 0 1-1-4.4 9.2 9.2 0 0 0 6.8 3.4 3.3 3.3 0 0 1 3.2-4 3.5 3.5 0 0 1 2.4 1 6 6 0 0 0 2.1-.8 4 4 0 0 1-1.5 1.9 6 6 0 0 0 1.9-.6 5.2 5.2 0 0 1-1.6 1.7zM49 3.1H35a5 5 0 0 0-5 5v14a5 5 0 0 0 5 5h14a5 5 0 0 0 5-5v-14a5 5 0 0 0-5-5zm-3 7h-1.9c-.6 0-1.1.2-1.1.9v1.1h3l-.2 3H43v8h-3v-8h-2v-3h2v-1.9c0-2.1 1.1-3.1 3.5-3.1H46zm23-4.8h4.9c3.2.2 4.7 1.7 4.9 4.9v9.7c-.2 3.3-1.7 4.8-4.9 5h-9.7c-3.3-.2-4.8-1.7-5-5v-9.7c.2-3.2 1.7-4.7 5-4.9zm0-2.2h-4.9c-4.4.2-6.8 2.6-7 6.9-.1 1.3-.1 1.7-.1 5s0 3.7.1 4.9c.2 4.4 2.6 6.8 7 7H74c4.3-.2 6.7-2.6 6.9-7 .1-1.2.1-1.6.1-4.9s0-3.7-.1-5c-.2-4.3-2.6-6.7-6.9-6.9zm0 5.8a6.2 6.2 0 1 0 6.2 6.2A6.2 6.2 0 0 0 69 8.9zm0 10.2a4 4 0 1 1 4-4 4 4 0 0 1-4 4zm6.4-11.9A1.5 1.5 0 0 0 74 8.7a1.4 1.4 0 0 0 1.4 1.4 1.5 1.5 0 0 0 1.5-1.4 1.5 1.5 0 0 0-1.5-1.5z"/></symbol></svg>