<svg id="Layer_1" data-name="Layer 1" xmlns="http://www.w3.org/2000/svg" width="1.7in" height="1.3in" viewBox="0 0 121.3 91.4"><title>Artboard 1</title><path d="M33.2,75.5c-4.5-5-7.8-8.6-10.2-11.1a43.2,43.2,0,0,1-11,9A14.8,14.8,0,0,1,4.5,76,2.3,2.3,0,0,1,2,73.4c0-5.2,8.7-18.8,12.9-18.8,1.3,0,3.1,1.1,7.2,4.6C37.7,36.4,60.3,0,85.6,0c8.4,0,12,3.5,12,8,0,8.6-13.6,23.1-37.9,23.1-.6,0-.3-1.4.3-1.4,16.8-.6,35.8-14.5,35.8-22.5,0-3.1-3.1-4.7-8.6-4.7C57.9,2.5,36.9,49.3,25.1,62c2.7,2.5,6.2,5.8,10.8,10.3C49.8,86,57.4,89.8,60.8,89.8s4.7-2.3,5.5-4.3l1-2.5c.6-1.4,4.8-1.2,4.1.4l-.8,1.9a9.5,9.5,0,0,1-9.2,6.1C55.6,91.4,45.7,89.1,33.2,75.5Zm-13-13.9c-3.7-3.9-4.2-4-5.2-4-2.6,0-11.2,11.6-11.2,16,0,.8.5.9,1,.9C6.8,74.5,12.4,71.3,20.2,61.6Z" fill="#fff"/><path d="M59.3,61.6,62.1,55c.2-.5-.3-.7-.8-.5a.8.8,0,0,1-1.1-.2,1.1,1.1,0,0,1,.3-1.1l3.1-1.6a3.8,3.8,0,0,1,1.9-.5c1.1,0,2,.7,1.3,2.4l-3.3,7.7c-.6,1.7-1,2.8,1.4,2.8,4.5,0,18.3-7.6,24.3-10.8.2-.2.6,0,.8.3s.2.8-.1.9C79.4,60,68.9,65.8,62.6,65.8,60,65.8,58.2,64.2,59.3,61.6Zm7.4-21a3,3,0,0,1,3-3.1,3.1,3.1,0,0,1,0,6.1A3,3,0,0,1,66.7,40.6Z" fill="#fff"/><path d="M90,64.6c0-2.7-2.8-7.8-6.7-11l-1.5-.9c-.3-.2-.6-.5-.6-.7s1-1.1,1.3-.9l1.4,1a22.1,22.1,0,0,0,3.6,2,33,33,0,0,0,9.1-6.7A110.7,110.7,0,0,1,103,34.5c1.5-2.5,2.1-3.3,3-3.3s1.1,1.1.1,3.4L97,56.7a27.8,27.8,0,0,0,5.1.4c6,0,13.3-1.3,18.3-3.9.2-.2.6,0,.8.3s.2.8-.1.9c-5.1,2.9-12.8,4.2-19,4.2a34.5,34.5,0,0,1-5.7-.5c-1.3,3-2.5,6-2.8,6.7s-1,1-2.4,1A1.1,1.1,0,0,1,90,64.6Zm2.6-7.3a39.7,39.7,0,0,1-5.2-1.7A19.1,19.1,0,0,1,91,61.8Zm2.7-6.7a31.7,31.7,0,0,1-6,4.2A29,29,0,0,0,93.1,56Z" fill="#fff"/><path d="M7.8,21.8v1.3H.8V12.2H2.2v9.6Z" fill="#fff"/><path d="M10.8,13.4v3.5h5.3v1.2H10.8v3.7h5.8v1.3H9.4V12.2h7v1.2Z" fill="#fff"/><path d="M22.4,13.4v9.7H21V13.4H17.2V12.2h8.9v1.2Z" fill="#fff"/><path d="M28.2,15.9h-.8l.5-2.1h-.5V12.2h1.5v1.6Z" fill="#fff"/><path d="M38.3,15.5H36.8c0-1.6-.8-2.3-2.5-2.3s-2.1.6-2.1,1.7.8,1.5,2.6,1.9,3.7,1,3.7,3.3-1.5,3.2-3.9,3.2-4-1.3-4-3.8H32a2.4,2.4,0,0,0,2.6,2.6c1.6,0,2.5-.7,2.5-2s-.9-1.5-2.7-1.9-3.6-1.1-3.6-3.2,1.3-3,3.6-3S38.3,13.2,38.3,15.5Z" fill="#fff"/><path d="M9.3,33.8H7.8a2.7,2.7,0,0,0-2.9-2.2c-2.1,0-3.4,1.7-3.4,4.4s1.2,4.4,3.3,4.4,3.1-1,3.1-3.5h-3V35.6H9.3v5.8H8V39.9H8a3.8,3.8,0,0,1-3.5,1.7C1.8,41.6,0,39.5,0,36s1.9-5.7,4.9-5.7S9.1,31.7,9.3,33.8Z" fill="#fff"/><path d="M13.4,31.8v3.4h5.3v1.3H13.4v3.7h5.8v1.2H12V30.5h7v1.3Z" fill="#fff"/><path d="M25,31.8v9.6H23.6V31.8H19.8V30.5h8.9v1.3Z" fill="#fff"/></svg>